<svg id="undraw_web_shopping_dd4l" xmlns="http://www.w3.org/2000/svg" viewBox="0 0 303.081 220.995">
	<rect id="Rectangle_24" data-name="Rectangle 24" width="222.81" height="142.697" transform="translate(0.095 0.126)" fill="#e6e6e6" />
	<rect id="Rectangle_25" data-name="Rectangle 25" width="210.067" height="116.357" transform="translate(6.466 18.024)" fill="#fff" />
	<rect id="Rectangle_26" data-name="Rectangle 26" width="222.81" height="9.466" fill="#c4b357" />
	<circle id="Ellipse_14" data-name="Ellipse 14" cx="1.754" cy="1.754" r="1.754" transform="translate(5.28 3.085)" fill="#fff" />
	<circle id="Ellipse_15" data-name="Ellipse 15" cx="1.754" cy="1.754" r="1.754" transform="translate(11.939 3.085)" fill="#fff" />
	<circle id="Ellipse_16" data-name="Ellipse 16" cx="1.754" cy="1.754" r="1.754" transform="translate(18.598 3.085)" fill="#fff" />
	<rect id="Rectangle_27" data-name="Rectangle 27" width="41.086" height="44.575" transform="translate(32.313 27.594)" fill="#e6e6e6" />
	<rect id="Rectangle_28" data-name="Rectangle 28" width="41.086" height="44.575" transform="translate(90.956 27.594)" fill="#e6e6e6" />
	<rect id="Rectangle_29" data-name="Rectangle 29" width="41.086" height="44.575" transform="translate(149.6 27.594)" fill="#e6e6e6" />
	<rect id="Rectangle_30" data-name="Rectangle 30" width="41.086" height="44.575" transform="translate(32.313 80.237)" fill="#e6e6e6" />
	<rect id="Rectangle_31" data-name="Rectangle 31" width="41.086" height="44.575" transform="translate(90.956 80.237)" fill="#e6e6e6" />
	<rect id="Rectangle_32" data-name="Rectangle 32" width="41.086" height="44.575" transform="translate(149.6 80.237)" fill="#e6e6e6" />
	<path id="Path_17" data-name="Path 17" d="M445.483,389.968,452.99,387l.873,14.839s1.571,4.539,1.047,6.285c0,0,.349,2.968-.524,3.142a14.461,14.461,0,0,1-3.492.349c-.175-.175-.175-.7-.175-.7s-1.746,1.222-1.92,2.619c0,0-7.332,2.27-7.507.175s3.666-3.841,3.666-3.841l2.968-4.539Z" transform="translate(-344.596 -298.275)" fill="#fff" />
	<path id="Path_18" data-name="Path 18" d="M491.452,389.968,498.959,387l.873,14.839s1.571,4.539,1.047,6.285c0,0,.349,2.968-.524,3.142a14.461,14.461,0,0,1-3.492.349c-.175-.175-.175-.7-.175-.7s-1.746,1.222-1.92,2.619c0,0-7.332,2.27-7.507.175s3.666-3.841,3.666-3.841l2.968-4.539Z" transform="translate(-374.679 -298.275)" fill="#fff" />
	<path id="Path_19" data-name="Path 19" d="M473.257,228.644s-1.6,4.466.254,6.48l-1.544,5.306s5.486,16.458,3.918,18.756c0,0-5.852,2.926-17.555-1.045l4.754-18.443-.679-7.785.94-3.657,2.09-.209s-1.254,4.7,1.045,5.434,4.542-5.316,4.542-5.316Z" transform="translate(-355.749 -194.254)" fill="#1c1c1c" />
	<path id="Path_20" data-name="Path 20" d="M287.921,256.951l2.017.825,9.627-12.653,3.026,14.853,2.017-.367c1.294-12.806,2.349-25.867,1.054-32.045l-7.473-.321L294.8,238.063l-1.65,7.335Z" transform="translate(-244.232 -193.728)" fill="#fff" />
	<path id="Path_21" data-name="Path 21" d="M637.21,227.875s-2.753,3.827-2.619,5.371,1.88,26.723,1.88,26.723l4.1.2-1.209-18.129,1.007-4.9,2.484,22.829,5.036.134-4.5-29.61-.873-2.619Z" transform="translate(-471.093 -194.142)" fill="#fff" />
	<path id="Path_22" data-name="Path 22" d="M638.451,399.771a5.686,5.686,0,0,0-3.194-1.608,17.17,17.17,0,0,0-3.732-.717l-1.4-1.112-4.29,2.228-2.411-1.641-1.12.4a21.453,21.453,0,0,0-3.477.412c-.673.024-1.532.066-2.494.14-3.369.259-3.628,8.984-3.628,8.984a13.773,13.773,0,0,1,4.877-1.021l.911,10.438a48.283,48.283,0,0,1,14.686,1.209l2.388-8.2,5.56-2.162S640.179,401.845,638.451,399.771Z" transform="translate(-456.775 -304.383)" fill="#1c1c1c" />
	<path id="Path_23" data-name="Path 23" d="M301.774,386.538a4.685,4.685,0,0,0-2.632-1.325,14.148,14.148,0,0,0-3.075-.591l-1.151-.917-3.535,1.836-1.987-1.352-.923.328a17.68,17.68,0,0,0-2.865.34c-.554.02-1.263.055-2.055.116-2.776.214-2.99,7.4-2.99,7.4a11.348,11.348,0,0,1,4.019-.841l.75,21.051a39.784,39.784,0,0,1,12.1,1L299.4,394.37l4.581-1.782S303.2,388.246,301.774,386.538Z" transform="translate(-239.416 -296.119)" fill="#fff" />
	<path id="Path_24" data-name="Path 24" d="M512.922,550.417l-27.793,5.689-.633-.065-24.424-2.465V522.624l29.9-5.055,21.689,2.529.008.137v.065Z" transform="translate(-301.076 -338.703)" fill="#e6e6e6" />
	<path id="Path_25" data-name="Path 25" d="M559.171,555.466l-27.793,5.689-.633-.065V529.36l27.172-4.075Z" transform="translate(-347.325 -343.752)" opacity="0.1" style="isolation: isolate" />
	<path id="Path_26" data-name="Path 26" d="M511.667,520.3l-.008.008-27.164,4-24.424-1.686,29.9-5.055,21.689,2.529.008.137Z" transform="translate(-301.076 -338.703)" opacity="0.05" style="isolation: isolate" />
	<rect id="Rectangle_33" data-name="Rectangle 33" width="16.934" height="7.949" transform="matrix(0.998, 0.065, -0.065, 0.998, 162.358, 194.725)" fill="#fff" />
	<rect id="Rectangle_34" data-name="Rectangle 34" width="8.985" height="2.765" transform="matrix(0.998, 0.065, -0.065, 0.998, 166.155, 197.57)" fill="#c4b357" />
	<path id="Path_27" data-name="Path 27" d="M621.922,550.417l-27.793,5.689-.633-.065-24.424-2.465V522.624l29.9-5.055,21.689,2.529.008.137v.065Z" transform="translate(-372.406 -338.703)" fill="#c4b357" />
	<path id="Path_28" data-name="Path 28" d="M668.171,555.466l-27.793,5.689-.633-.065V529.36l27.172-4.075Z" transform="translate(-418.656 -343.752)" opacity="0.1" style="isolation: isolate" />
	<path id="Path_29" data-name="Path 29" d="M620.667,520.3l-.008.008-27.164,4-24.424-1.686,29.9-5.055,21.689,2.529.008.137Z" transform="translate(-372.406 -338.703)" opacity="0.05" style="isolation: isolate" />
	<rect id="Rectangle_35" data-name="Rectangle 35" width="16.934" height="7.949" transform="matrix(0.998, 0.065, -0.065, 0.998, 200.027, 194.725)" fill="#fff" />
	<rect id="Rectangle_36" data-name="Rectangle 36" width="8.985" height="2.765" transform="matrix(0.998, 0.065, -0.065, 0.998, 203.824, 197.57)" fill="#c4b357" />
	<path id="Path_30" data-name="Path 30" d="M930.065,295.884s4.9,12.668-4.086,12.668,13.894,12.668,22.884,5.312,3.678-7.764,3.678-7.764-11.851,1.226-11.442-9.4Z" transform="translate(-660.439 -238.647)" fill="#fff0e6" />
	<circle id="Ellipse_17" data-name="Ellipse 17" cx="14.452" cy="14.452" r="14.452" transform="translate(261.562 32.145)" fill="#1c1c1c" />
	<path id="Path_31" data-name="Path 31" d="M894.711,448.422l-15.529,40.047s-7.764,12.259-4.9,24.519S885,547.559,885,547.559s5.938,1.511,5.529-3.8.255-31.068-5.875-38.015l24.768-28.307.817,32.283s-1.635,14.711-1.226,21.25,1.226,17.572,1.226,17.572l4.9-.817s6.615-30.1,5.8-39.906c0,0,15.183-47.654-.346-59.1Z" transform="translate(-627.536 -338.47)" fill="#1c1c1c" />
	<path id="Path_32" data-name="Path 32" d="M903.361,726.911s-2-.509-2.23,1.325-4.436,9.989-.045,10.4,5.91-3.7,6.645-6.587,1.014-3.054,1.628-3.607,2.076-3.585.242-3.815a4.059,4.059,0,0,1-2.774-2.034S906.249,727.647,903.361,726.911Z" transform="translate(-644.19 -517.888)" fill="#1c1c1c" />
	<path id="Path_33" data-name="Path 33" d="M981.923,730.531s-3.708-.53-3.443.795-.53,6.886,0,7.416,1.589,1.589,1.589,2.384.265,3.443,4.768,2.649a3.756,3.756,0,0,0,3.178-5.3c-.265-.53-3.443-3.178-3.178-4.767S983.513,729.471,981.923,730.531Z" transform="translate(-696.019 -522.926)" fill="#1c1c1c" />
	<circle id="Ellipse_18" data-name="Ellipse 18" cx="10.01" cy="10.01" r="10.01" transform="translate(266.183 42.615)" fill="#fff0e6" />
	<path id="Path_34" data-name="Path 34" d="M935.432,321.8s3.492,6.908-7.033,7.1a10.809,10.809,0,0,1-8.671-5.117c-.936-1.661-1.172.633-2.685.465-2.865-.318-5.927.87-8.666,2.327a1.728,1.728,0,0,0-.844,2.027c2.077,6.892,8.01,40.047,8.925,41.852,2.339,4.61,27.647-3.11,27.647-3.11.347-12.543-4.206-30.091,3.8-42.853A15.252,15.252,0,0,0,935.432,321.8Z" transform="translate(-649.664 -255.369)" fill="#b65f9e" />
	<path id="Path_35" data-name="Path 35" d="M789.248,122.728l-7.334-3.842-10.128,1.571-2.1,9.255,5.216-.2,1.457-3.4v3.344l2.407-.093,1.4-5.413.873,5.763,8.556-.175Z" transform="translate(-503.694 -77.8)" fill="#1c1c1c" />
	<circle id="Ellipse_19" data-name="Ellipse 19" cx="5.832" cy="5.832" r="5.832" transform="translate(270.944 24.285)" fill="#1c1c1c" />
	<path id="Path_36" data-name="Path 36" d="M937.752,201.23a5.833,5.833,0,0,1,4.944-5.764,5.832,5.832,0,1,0,0,11.529,5.833,5.833,0,0,1-4.944-5.765Z" transform="translate(-668.33 -172.888)" fill="#1c1c1c" />
	<path id="Path_37" data-name="Path 37" d="M776.922,421.417l-27.793,5.689-.633-.065-24.424-2.465V393.624l29.9-5.055,21.689,2.529.008.137v.065Z" transform="translate(-473.84 -254.284)" fill="#e6e6e6" />
	<path id="Path_38" data-name="Path 38" d="M823.171,426.466l-27.793,5.689-.633-.065V400.36l27.172-4.075Z" transform="translate(-520.09 -259.333)" opacity="0.1" style="isolation: isolate" />
	<path id="Path_39" data-name="Path 39" d="M775.667,391.3l-.008.008-27.164,4-24.424-1.686,29.9-5.055,21.689,2.529.008.137Z" transform="translate(-473.84 -254.284)" opacity="0.05" style="isolation: isolate" />
	<rect id="Rectangle_37" data-name="Rectangle 37" width="16.934" height="7.949" transform="matrix(0.998, 0.065, -0.065, 0.998, 253.594, 150.144)" fill="#fff" />
	<rect id="Rectangle_38" data-name="Rectangle 38" width="8.985" height="2.765" transform="matrix(0.998, 0.065, -0.065, 0.998, 257.391, 152.989)" fill="#c4b357" />
	<path id="Path_40" data-name="Path 40" d="M900.223,510.457s-10.216,8.173-5.721,11.033,9.807-11.033,9.807-11.033Z" transform="translate(-640.437 -379.066)" fill="#fff0e6" />
	<path id="Path_41" data-name="Path 41" d="M902.531,335.159c-.529-.6-7.212,2.812-6.221,7.257l.466,30.8s-2.452,25.336,3.678,25.336,5.406.852,6.224-1.191,1.037-19.353,1.037-19.353Z" transform="translate(-642.303 -264.305)" fill="#b65f9e" />
	<path id="Path_42" data-name="Path 42" d="M1005.954,502.457s5.312,13.894,9.808,11.033-5.721-11.033-5.721-11.033Z" transform="translate(-714.12 -373.831)" fill="#fff0e6" />
	<path id="Path_43" data-name="Path 43" d="M1002.956,370.357s-2.545,16.964-1.728,19.007.094,1.191,6.224,1.191,3.678-25.336,3.678-25.336l.466-30.8c.991-4.446-5.691-7.854-6.221-7.257L999.5,347.2Z" transform="translate(-709.897 -259.069)" fill="#b65f9e" />
</svg>
